<svg width="400" height="400" viewBox="0 0 400 400" xmlns="http://www.w3.org/2000/svg">
  <defs>
    <radialGradient id="galacticGradient" cx="50%" cy="50%" r="50%">
      <stop offset="0%" style="stop-color:#2a1a3a;stop-opacity:1" />
      <stop offset="50%" style="stop-color:#1a0a2a;stop-opacity:1" />
      <stop offset="100%" style="stop-color:#0a0a1a;stop-opacity:1" />
    </radialGradient>
    <filter id="cosmicBlur" x="-50%" y="-50%" width="200%" height="200%">
      <feGaussianBlur in="SourceGraphic" stdDeviation="3"/>
    </filter>
  </defs>
  
  <!-- Background -->
  <rect width="400" height="400" fill="url(#galacticGradient)"/>
  
  <!-- Galaxy spiral arms -->
  <path d="M 200 200 Q 120 120 200 200 Q 280 120 200 200 Q 280 280 200 200 Q 120 280 200 200" 
        fill="#3a2a4a" opacity="0.7" filter="url(#cosmicBlur)"/>
  
  <!-- Central galactic core -->
  <circle cx="200" cy="200" r="40" fill="#1a1a2a" opacity="0.8"/>
  
  <!-- Spiral formations -->
  <path d="M 200 200 Q 160 160 200 200 Q 240 160 200 200 Q 240 240 200 200 Q 160 240 200 200" 
        fill="#4a3a5a" opacity="0.5"/>
  
  <!-- Stellar clusters -->
  <g opacity="0.8">
    <circle cx="160" cy="160" r="2" fill="#d4af37"/>
    <circle cx="240" cy="160" r="2" fill="#d4af37"/>
    <circle cx="160" cy="240" r="2" fill="#d4af37"/>
    <circle cx="240" cy="240" r="2" fill="#d4af37"/>
    <circle cx="200" cy="140" r="3" fill="#d4af37"/>
    <circle cx="200" cy="260" r="3" fill="#d4af37"/>
  </g>
  
  <!-- Cosmic dust clouds -->
  <ellipse cx="120" cy="200" rx="30" ry="20" fill="#4a9eff" opacity="0.2" filter="url(#cosmicBlur)"/>
  <ellipse cx="280" cy="200" rx="30" ry="20" fill="#4a9eff" opacity="0.2" filter="url(#cosmicBlur)"/>
  
  <!-- Dark matter voids -->
  <ellipse cx="200" cy="120" rx="20" ry="15" fill="#000000" opacity="0.6"/>
  <ellipse cx="200" cy="280" rx="20" ry="15" fill="#000000" opacity="0.6"/>
</svg>
