<svg width="400" height="400" viewBox="0 0 400 400" xmlns="http://www.w3.org/2000/svg">
  <defs>
    <radialGradient id="voidGradient" cx="50%" cy="50%" r="50%">
      <stop offset="0%" style="stop-color:#1a1a1a;stop-opacity:1" />
      <stop offset="70%" style="stop-color:#0a0a0a;stop-opacity:1" />
      <stop offset="100%" style="stop-color:#000000;stop-opacity:1" />
    </radialGradient>
    <filter id="etherealBlur" x="-50%" y="-50%" width="200%" height="200%">
      <feGaussianBlur in="SourceGraphic" stdDeviation="4"/>
    </filter>
  </defs>
  
  <!-- Background -->
  <rect width="400" height="400" fill="url(#voidGradient)"/>
  
  <!-- Central void portal -->
  <ellipse cx="200" cy="200" rx="60" ry="100" fill="#000000" opacity="0.9"/>
  
  <!-- Portal edges with cosmic energy -->
  <path d="M 140 200 Q 180 160 200 200 Q 220 160 260 200 Q 220 240 200 200 Q 180 240 140 200" 
        fill="#2a2a2a" opacity="0.6" filter="url(#etherealBlur)"/>
  
  <!-- Energy tendrils reaching outward -->
  <path d="M 200 100 Q 160 140 200 180 Q 240 140 200 100" 
        fill="#3a3a3a" opacity="0.4"/>
  <path d="M 200 300 Q 160 260 200 220 Q 240 260 200 300" 
        fill="#3a3a3a" opacity="0.4"/>
  
  <!-- Cosmic energy nodes -->
  <circle cx="200" cy="120" r="4" fill="#d4af37" opacity="0.9"/>
  <circle cx="200" cy="280" r="4" fill="#d4af37" opacity="0.9"/>
  <circle cx="140" cy="200" r="3" fill="#d4af37" opacity="0.7"/>
  <circle cx="260" cy="200" r="3" fill="#d4af37" opacity="0.7"/>
  
  <!-- Nebula wisps -->
  <ellipse cx="100" cy="200" rx="20" ry="40" fill="#4a9eff" opacity="0.15" filter="url(#etherealBlur)"/>
  <ellipse cx="300" cy="200" rx="20" ry="40" fill="#4a9eff" opacity="0.15" filter="url(#etherealBlur)"/>
  
  <!-- Central singularity -->
  <circle cx="200" cy="200" r="15" fill="#000000" opacity="1"/>
  
  <!-- Event horizon rings -->
  <ellipse cx="200" cy="200" rx="45" ry="75" fill="none" stroke="#d4af37" stroke-width="1" opacity="0.3"/>
  <ellipse cx="200" cy="200" rx="35" ry="60" fill="none" stroke="#d4af37" stroke-width="0.5" opacity="0.2"/>
</svg>
